<?xml version="1.0" encoding="UTF-8" standalone="yes"?>
<svg xmlns="http://www.w3.org/2000/svg" xmlns:xlink="http://www.w3.org/1999/xlink" height="240" width="960">
  <defs id="4D">
    <symbol id="LCDsegmentH">
      <path d="M0,10 L10,0 70,0 80,10 70,20 10,20z"/>
    </symbol>
    <symbol id="LCDsegmentV">
      <path d="M10,0 L20,10 20,80 10,90 0,80 0,10z"/>
    </symbol>
    <symbol id="BlinkSegment" viewBox="0 0 20 20">
      <path d="M0,10 L10,0 20,10 10,20z"/>
    </symbol>
  </defs>
  <g fill="rgb(10,10,10)" id="globalClock" stroke="rgb(50,50,50)" stroke-width="1">
    <g id="HH" transform="translate(40,20)">
      <g id="digit1" transform="translate(0,0)">
        <use height="20" id="dig1_segA" width="80" x="10" xlink:href="#LCDsegmentH" y="0"/>
        <use height="90" id="dig1_segB" width="20" x="80" xlink:href="#LCDsegmentV" y="10"/>
        <use height="90" id="dig1_segC" width="20" x="80" xlink:href="#LCDsegmentV" y="100"/>
        <use height="20" id="dig1_segD" width="80" x="10" xlink:href="#LCDsegmentH" y="180"/>
        <use height="90" id="dig1_segE" width="20" x="0" xlink:href="#LCDsegmentV" y="100"/>
        <use height="90" id="dig1_segF" width="20" x="0" xlink:href="#LCDsegmentV" y="10"/>
        <use height="20" id="dig1_segG" width="80" x="10" xlink:href="#LCDsegmentH" y="90"/>
        <use height="90" id="dig1_segH" width="20" x="40" xlink:href="#LCDsegmentV" y="10"/>
      </g>
      <g id="digit2" transform="translate(140,0)">
        <use height="20" id="dig2_segA" width="80" x="10" xlink:href="#LCDsegmentH" y="0"/>
        <use height="90" id="dig2_segB" width="20" x="80" xlink:href="#LCDsegmentV" y="10"/>
        <use height="90" id="dig2_segC" width="20" x="80" xlink:href="#LCDsegmentV" y="100"/>
        <use height="20" id="dig2_segD" width="80" x="10" xlink:href="#LCDsegmentH" y="180"/>
        <use height="90" id="dig2_segE" width="20" x="0" xlink:href="#LCDsegmentV" y="100"/>
        <use height="90" id="dig2_segF" width="20" x="0" xlink:href="#LCDsegmentV" y="10"/>
        <use height="20" id="dig2_segG" width="80" x="10" xlink:href="#LCDsegmentH" y="90"/>
        <use height="90" id="dig2_segH" width="20" x="40" xlink:href="#LCDsegmentV" y="10"/>
      </g>
    </g>
    <g id="MM" transform="translate(360,20)">
      <g id="digit3" transform="translate(0,0)">
        <use height="20" id="dig3_segA" width="80" x="10" xlink:href="#LCDsegmentH" y="0"/>
        <use height="90" id="dig3_segB" width="20" x="80" xlink:href="#LCDsegmentV" y="10"/>
        <use height="90" id="dig3_segC" width="20" x="80" xlink:href="#LCDsegmentV" y="100"/>
        <use height="20" id="dig3_segD" width="80" x="10" xlink:href="#LCDsegmentH" y="180"/>
        <use height="90" id="dig3_segE" width="20" x="0" xlink:href="#LCDsegmentV" y="100"/>
        <use height="90" id="dig3_segF" width="20" x="0" xlink:href="#LCDsegmentV" y="10"/>
        <use height="20" id="dig3_segG" width="80" x="10" xlink:href="#LCDsegmentH" y="90"/>
        <use height="90" id="dig3_segH" width="20" x="40" xlink:href="#LCDsegmentV" y="10"/>
      </g>
      <g id="digit4" transform="translate(140,0)">
        <use height="20" id="dig4_segA" width="80" x="10" xlink:href="#LCDsegmentH" y="0"/>
        <use height="90" id="dig4_segB" width="20" x="80" xlink:href="#LCDsegmentV" y="10"/>
        <use height="90" id="dig4_segC" width="20" x="80" xlink:href="#LCDsegmentV" y="100"/>
        <use height="20" id="dig4_segD" width="80" x="10" xlink:href="#LCDsegmentH" y="180"/>
        <use height="90" id="dig4_segE" width="20" x="0" xlink:href="#LCDsegmentV" y="100"/>
        <use height="90" id="dig4_segF" width="20" x="0" xlink:href="#LCDsegmentV" y="10"/>
        <use height="20" id="dig4_segG" width="80" x="10" xlink:href="#LCDsegmentH" y="90"/>
        <use height="90" id="dig4_segH" width="20" x="40" xlink:href="#LCDsegmentV" y="10"/>
      </g>
    </g>
    <g id="SS" visibility="hidden">
      <g id="digit5" transform="translate(0,0)">
        <use height="20" id="dig5_segA" width="80" x="10" xlink:href="#LCDsegmentH" y="0"/>
        <use height="90" id="dig5_segB" width="20" x="80" xlink:href="#LCDsegmentV" y="10"/>
        <use height="90" id="dig5_segC" width="20" x="80" xlink:href="#LCDsegmentV" y="100"/>
        <use height="20" id="dig5_segD" width="80" x="10" xlink:href="#LCDsegmentH" y="180"/>
        <use height="90" id="dig5_segE" width="20" x="0" xlink:href="#LCDsegmentV" y="100"/>
        <use height="90" id="dig5_segF" width="20" x="0" xlink:href="#LCDsegmentV" y="10"/>
        <use height="20" id="dig5_segG" width="80" x="10" xlink:href="#LCDsegmentH" y="90"/>
        <use height="90" id="dig5_segH" width="20" x="40" xlink:href="#LCDsegmentV" y="10"/>
      </g>
      <g id="digit6" transform="translate(140,0)">
        <use height="20" id="dig6_segA" width="80" x="10" xlink:href="#LCDsegmentH" y="0"/>
        <use height="90" id="dig6_segB" width="20" x="80" xlink:href="#LCDsegmentV" y="10"/>
        <use height="90" id="dig6_segC" width="20" x="80" xlink:href="#LCDsegmentV" y="100"/>
        <use height="20" id="dig6_segD" width="80" x="10" xlink:href="#LCDsegmentH" y="180"/>
        <use height="90" id="dig6_segE" width="20" x="0" xlink:href="#LCDsegmentV" y="100"/>
        <use height="90" id="dig6_segF" width="20" x="0" xlink:href="#LCDsegmentV" y="10"/>
        <use height="20" id="dig6_segG" width="80" x="10" xlink:href="#LCDsegmentH" y="90"/>
        <use height="90" id="dig6_segH" width="20" x="40" xlink:href="#LCDsegmentV" y="10"/>
      </g>
    </g>
    <g id="AM" transform="translate(730,60) scale(0.6,0.6)">
      <g id="digit7" transform="translate(0,0)">
        <use height="20" id="dig7_segA" width="80" x="10" xlink:href="#LCDsegmentH" y="0"/>
        <use height="90" id="dig7_segB" width="20" x="80" xlink:href="#LCDsegmentV" y="10"/>
        <use height="90" id="dig7_segC" width="20" x="80" xlink:href="#LCDsegmentV" y="100"/>
        <use height="20" id="dig7_segD" width="80" x="10" xlink:href="#LCDsegmentH" y="180"/>
        <use height="90" id="dig7_segE" width="20" x="0" xlink:href="#LCDsegmentV" y="100"/>
        <use height="90" id="dig7_segF" width="20" x="0" xlink:href="#LCDsegmentV" y="10"/>
        <use height="20" id="dig7_segG" width="80" x="10" xlink:href="#LCDsegmentH" y="90"/>
        <use height="90" id="dig7_segH" width="20" x="40" xlink:href="#LCDsegmentV" y="10"/>
      </g>
      <g id="digit8" transform="translate(140,0)">
        <use height="20" id="dig8_segA" width="80" x="10" xlink:href="#LCDsegmentH" y="0"/>
        <use height="90" id="dig8_segB" width="20" x="80" xlink:href="#LCDsegmentV" y="10"/>
        <use height="90" id="dig8_segC" width="20" x="80" xlink:href="#LCDsegmentV" y="100"/>
        <use height="20" id="dig8_segD" width="80" x="10" xlink:href="#LCDsegmentH" y="180"/>
        <use height="90" id="dig8_segE" width="20" x="0" xlink:href="#LCDsegmentV" y="100"/>
        <use height="90" id="dig8_segF" width="20" x="0" xlink:href="#LCDsegmentV" y="10"/>
        <use height="20" id="dig8_segG" width="80" x="10" xlink:href="#LCDsegmentH" y="90"/>
        <use height="90" id="dig8_segH" width="20" x="40" xlink:href="#LCDsegmentV" y="10"/>
      </g>
    </g>
    <g id="blink" opacity="1">
      <use height="20" width="20" x="310" xlink:href="#BlinkSegment" y="80"/>
      <use height="20" width="20" x="310" xlink:href="#BlinkSegment" y="140"/>
    </g>
  </g>
</svg>
