<?xml version="1.0" encoding="UTF-8"?>
<svg xmlns="http://www.w3.org/2000/svg" version="1.1" viewBox="0 0 20 80">
  <defs>
    <style>
    :root { color-scheme: light dark; }
    
	.st0, .st1, .st2 {isolation: isolate;}
	.st0 {fill: #111;}
	.st1, st2 {fill: #313131;}
	.st3 {fill: #cfcfcf;}
	
    @media (prefers-color-scheme: dark) {
		.st0 {fill: #bababa;}
		.st1 {fill: #eee;}
		.st2 {fill: #646464;}
    }
    </style>
  </defs>
  <path class="st1" d="M18.05,16.8l-3.91-3.77c.84-1.11,1.35-2.49,1.35-3.98,0-3.65-2.97-6.61-6.61-6.61s-6.61,2.97-6.61,6.61,2.97,6.61,6.61,6.61c1.45,0,2.78-.47,3.87-1.27l3.95,3.81c.19.18.43.27.68.27s.51-.1.7-.3c.37-.39.36-1-.02-1.38h-.01ZM8.88,13.71c-2.57,0-4.67-2.09-4.67-4.67s2.09-4.67,4.67-4.67,4.67,2.09,4.67,4.67-2.09,4.67-4.67,4.67Z"/>
  <path class="st0" d="M18.05,36.78l-3.91-3.77c.84-1.11,1.35-2.49,1.35-3.98,0-3.65-2.97-6.61-6.61-6.61s-6.61,2.97-6.61,6.61,2.97,6.61,6.61,6.61c1.45,0,2.78-.47,3.87-1.27l3.95,3.81c.19.18.43.27.68.27s.51-.1.7-.3c.37-.39.36-1-.02-1.38h-.01ZM8.88,33.69c-2.57,0-4.67-2.09-4.67-4.67s2.09-4.67,4.67-4.67,4.67,2.09,4.67,4.67-2.09,4.67-4.67,4.67Z"/>
  <path class="st2" d="M18.05,56.55l-3.91-3.77c.84-1.11,1.35-2.49,1.35-3.98,0-3.65-2.97-6.61-6.61-6.61s-6.61,2.97-6.61,6.61,2.97,6.61,6.61,6.61c1.45,0,2.78-.47,3.87-1.27l3.95,3.81c.19.18.43.27.68.27s.51-.1.7-.3c.37-.39.36-1-.02-1.38h-.01ZM8.88,53.46c-2.57,0-4.67-2.09-4.67-4.67s2.09-4.67,4.67-4.67,4.67,2.09,4.67,4.67-2.09,4.67-4.67,4.67Z"/>
  <path class="st3" d="M18.05,76.78l-3.91-3.77c.84-1.11,1.35-2.49,1.35-3.98,0-3.65-2.97-6.61-6.61-6.61s-6.61,2.97-6.61,6.61,2.97,6.61,6.61,6.61c1.45,0,2.78-.47,3.87-1.27l3.95,3.81c.19.18.43.27.68.27s.51-.1.7-.3c.37-.39.36-1-.02-1.38h-.01ZM8.88,73.69c-2.57,0-4.67-2.09-4.67-4.67s2.09-4.67,4.67-4.67,4.67,2.09,4.67,4.67-2.09,4.67-4.67,4.67Z"/>
</svg>