<?xml version="1.0" encoding="UTF-8"?>
<svg xmlns="http://www.w3.org/2000/svg" version="1.1" viewBox="0 0 20 80">
  <defs>
    <style>
    :root { color-scheme: light dark; }
    
	.st0, .st1, .st2 {isolation: isolate;}
	.st0 {fill: #111;}
	.st1 {fill: #cfcfcf;}
	.st2 {fill: #313131;}
	
    @media (prefers-color-scheme: dark) {
		.st0 {fill: #bababa;}
		.st1 {fill: #eee;}
		.st2 {fill: #646464;}
    }
    </style>
  </defs>
  <path class="st2" d="M10,4.56c-3.22,0-5.83,2.61-5.83,5.83s2.61,5.83,5.83,5.83,5.83-2.61,5.83-5.83-2.61-5.83-5.83-5.83ZM12.33,12.05c.17.17.18.45,0,.62-.09.09-.2.13-.32.13s-.22-.04-.31-.13l-1.71-1.67-1.71,1.67c-.09.08-.2.13-.31.13s-.23-.04-.32-.13c-.17-.17-.17-.45,0-.62l1.7-1.65-1.7-1.65c-.17-.17-.18-.45,0-.62.17-.17.45-.18.62,0l1.71,1.67,1.71-1.67c.17-.17.45-.17.62,0,.17.17.17.45,0,.62l-1.7,1.65,1.7,1.65Z"/>
  <path class="st0" d="M10,24.74c-3.22,0-5.83,2.61-5.83,5.83s2.61,5.83,5.83,5.83,5.83-2.61,5.83-5.83-2.61-5.83-5.83-5.83ZM12.33,32.23c.17.17.18.45,0,.62-.09.09-.2.13-.32.13s-.22-.04-.31-.13l-1.71-1.67-1.71,1.67c-.09.08-.2.13-.31.13s-.23-.04-.32-.13c-.17-.17-.17-.45,0-.62l1.7-1.65-1.7-1.65c-.17-.17-.18-.45,0-.62.17-.17.45-.18.62,0l1.71,1.67,1.71-1.67c.17-.17.45-.17.62,0,.17.17.17.45,0,.62l-1.7,1.65,1.7,1.65Z"/>
  <path class="st2" d="M10,43.92c-3.22,0-5.83,2.61-5.83,5.83s2.61,5.83,5.83,5.83,5.83-2.61,5.83-5.83-2.61-5.83-5.83-5.83ZM12.33,51.41c.17.17.18.45,0,.62-.09.09-.2.13-.32.13s-.22-.04-.31-.13l-1.71-1.67-1.71,1.67c-.09.08-.2.13-.31.13s-.23-.04-.32-.13c-.17-.17-.17-.45,0-.62l1.7-1.65-1.7-1.65c-.17-.17-.18-.45,0-.62.17-.17.45-.18.62,0l1.71,1.67,1.71-1.67c.17-.17.45-.17.62,0,.17.17.17.45,0,.62l-1.7,1.65,1.7,1.65Z"/>
  <path class="st1" d="M10,64.1c-3.22,0-5.83,2.61-5.83,5.83s2.61,5.83,5.83,5.83,5.83-2.61,5.83-5.83-2.61-5.83-5.83-5.83ZM12.33,71.59c.17.17.18.45,0,.62-.09.09-.2.13-.32.13s-.22-.04-.31-.13l-1.71-1.67-1.71,1.67c-.09.08-.2.13-.31.13s-.23-.04-.32-.13c-.17-.17-.17-.45,0-.62l1.7-1.65-1.7-1.65c-.17-.17-.18-.45,0-.62.17-.17.45-.18.62,0l1.71,1.67,1.71-1.67c.17-.17.45-.17.62,0,.17.17.17.45,0,.62l-1.7,1.65,1.7,1.65Z"/>
</svg>
