<?xml version="1.0" encoding="UTF-8"?>
<svg xmlns="http://www.w3.org/2000/svg" version="1.1" viewBox="0 0 20 80">
  <defs>
    <style>
    :root { color-scheme: light dark; }
    
	.st0, .st1, .st2 {
		isolation: isolate;
		fill: #8f8f8f;
	}
	
    @media (prefers-color-scheme: dark) {
		.st0 {fill: #595959;}
		.st1 {fill: #b0b0b0;}
		.st2 {fill: #eaeaea;}
    }      
    </style>
  </defs>
  <path class="st1" d="M11.26,9.78l3.39-3.3c.35-.34.36-.9.02-1.25-.34-.35-.9-.36-1.25-.02l-3.42,3.33-3.42-3.33c-.35-.34-.91-.33-1.25.02-.34.35-.33.91.02,1.25l3.39,3.3-3.39,3.3c-.35.34-.36.9-.02,1.25.17.18.4.27.63.27s.44-.08.62-.25l3.42-3.33,3.42,3.33c.17.17.39.25.62.25s.46-.09.63-.27c.34-.35.33-.91-.02-1.25l-3.39-3.3Z"/>
  <path class="st2" d="M14.67,25.38c-.34-.35-.9-.36-1.25-.02l-3.42,3.33-3.42-3.33c-.35-.34-.91-.33-1.25.02-.34.35-.33.91.02,1.25l3.39,3.3-3.39,3.3c-.35.34-.36.9-.02,1.25.17.18.4.27.63.27s.44-.08.62-.25l3.42-3.33,3.42,3.33c.17.17.39.25.62.25s.46-.09.63-.27c.34-.35.33-.91-.02-1.25l-3.39-3.3,3.39-3.3c.35-.34.36-.9.02-1.25Z"/>
  <path class="st1" d="M14.67,45.53c-.34-.35-.9-.36-1.25-.02l-3.42,3.33-3.42-3.33c-.35-.34-.91-.33-1.25.02-.34.35-.33.91.02,1.25l3.39,3.3-3.39,3.3c-.35.34-.36.9-.02,1.25.17.18.4.27.63.27s.44-.08.62-.25l3.42-3.33,3.42,3.33c.17.17.39.25.62.25s.46-.09.63-.27c.34-.35.33-.91-.02-1.25l-3.39-3.3,3.39-3.3c.35-.34.36-.9.02-1.25Z"/>
  <path class="st0" d="M14.67,65.67c-.34-.35-.9-.36-1.25-.02l-3.42,3.33-3.42-3.33c-.35-.34-.91-.33-1.25.02-.34.35-.33.91.02,1.25l3.39,3.3-3.39,3.3c-.35.34-.36.9-.02,1.25.17.18.4.27.63.27s.44-.08.61-.25l3.42-3.33,3.42,3.33c.17.17.39.25.61.25s.46-.09.63-.27c.34-.35.33-.91-.02-1.25l-3.39-3.3,3.39-3.3c.35-.34.36-.9.02-1.25Z"/>
</svg>