<?xml version="1.0" encoding="UTF-8"?>
<svg xmlns="http://www.w3.org/2000/svg" version="1.1" viewBox="0 0 20 80">
  <defs>
    <style>
    :root { color-scheme: light dark; }
    
	.st0, .st1, .st2 {
		isolation: isolate;
		fill: #9b9b9b;
	}
    	
    @media (prefers-color-scheme: dark) {
		.st0 {fill: #bababa;}
		.st1 {fill: #eee;}
		.st2 {fill: #646464;}
    }      
    </style>
  </defs>
  <path class="st0" d="M11.47,3.13c-3.07,0-5.57,2.5-5.57,5.57,0,1.31.46,2.51,1.22,3.47l-4.89,4.98c-.27.27-.26.71,0,.97.13.13.31.2.48.2s.36-.07.49-.21l4.89-4.99c.94.71,2.1,1.14,3.36,1.14,3.07,0,5.57-2.5,5.57-5.57s-2.5-5.57-5.57-5.57ZM11.47,12.88c-2.31,0-4.19-1.88-4.19-4.19s1.88-4.19,4.19-4.19,4.19,1.88,4.19,4.19-1.88,4.19-4.19,4.19Z"/>
  <path class="st1" d="M11.47,23.17c-3.07,0-5.57,2.5-5.57,5.57,0,1.31.46,2.51,1.22,3.47l-4.89,4.98c-.27.27-.26.71,0,.97.13.13.31.2.48.2s.36-.07.49-.21l4.89-4.99c.94.71,2.1,1.14,3.36,1.14,3.07,0,5.57-2.5,5.57-5.57s-2.5-5.57-5.57-5.57ZM11.47,32.92c-2.31,0-4.19-1.88-4.19-4.19s1.88-4.19,4.19-4.19,4.19,1.88,4.19,4.19-1.88,4.19-4.19,4.19Z"/>
  <path class="st0" d="M11.47,43.11c-3.07,0-5.57,2.5-5.57,5.57,0,1.31.46,2.51,1.22,3.47l-4.89,4.98c-.27.27-.26.71,0,.97.13.13.31.2.48.2s.36-.07.49-.21l4.89-4.99c.94.71,2.1,1.14,3.36,1.14,3.07,0,5.57-2.5,5.57-5.57s-2.5-5.57-5.57-5.57ZM11.47,52.87c-2.31,0-4.19-1.88-4.19-4.19s1.88-4.19,4.19-4.19,4.19,1.88,4.19,4.19-1.88,4.19-4.19,4.19Z"/>
  <path class="st2" d="M11.47,63.15c-3.07,0-5.57,2.5-5.57,5.57,0,1.31.46,2.52,1.22,3.47l-4.89,4.99c-.27.27-.26.71,0,.97.13.13.31.2.48.2s.36-.07.49-.21l4.89-4.99c.93.71,2.1,1.14,3.36,1.14,3.07,0,5.57-2.5,5.57-5.57s-2.5-5.57-5.57-5.57ZM11.47,72.9c-2.31,0-4.19-1.88-4.19-4.19s1.88-4.19,4.19-4.19,4.19,1.88,4.19,4.19-1.88,4.19-4.19,4.19Z"/>
</svg>